HIERARCHY
ROOT Hips
{
	OFFSET 0.000000 0.000000 0.000000
	CHANNELS 6 Xposition Yposition Zposition Xrotation Yrotation Zrotation
	JOINT LeftUpLeg_virtual
	{
		OFFSET 0.000000 0.000000 0.000000
		CHANNELS 3 Xrotation Yrotation Zrotation
		JOINT LeftUpLeg
		{
			OFFSET 10.205400 -3.823500 0.155100
			CHANNELS 3 Xrotation Yrotation Zrotation
			JOINT LeftLeg
			{
				OFFSET 0.708757 -12.982077 0.567790
				CHANNELS 3 Xrotation Yrotation Zrotation
				JOINT LeftFoot
				{
					OFFSET -0.708756 -10.717838 -2.184338
					CHANNELS 3 Xrotation Yrotation Zrotation
					JOINT LeftToeBase
					{
						OFFSET 0.108149 -7.191104 7.560241
						CHANNELS 3 Xrotation Yrotation Zrotation
						JOINT LeftToe_End
						{
							OFFSET 0.070230 0.081724 4.490308
							CHANNELS 3 Xrotation Yrotation Zrotation
							End Site
							{
								OFFSET 0 0 0
							}
						}
					}
				}
			}
		}
	}
	JOINT RightUpLeg_virtual
	{
		OFFSET 0.000000 0.000000 0.000000
		CHANNELS 3 Xrotation Yrotation Zrotation
		JOINT RightUpLeg
		{
			OFFSET -10.205400 -3.823500 0.005500
			CHANNELS 3 Xrotation Yrotation Zrotation
			JOINT RightLeg
			{
				OFFSET -0.708756 -12.982134 0.610632
				CHANNELS 3 Xrotation Yrotation Zrotation
				JOINT RightFoot
				{
					OFFSET 0.708754 -10.717769 -1.945823
					CHANNELS 3 Xrotation Yrotation Zrotation
					JOINT RightToeBase
					{
						OFFSET -0.108140 -7.191069 7.372968
						CHANNELS 3 Xrotation Yrotation Zrotation
						JOINT RightToe_End
						{
							OFFSET -0.070227 0.081735 4.479403
							CHANNELS 3 Xrotation Yrotation Zrotation
							End Site
							{
								OFFSET 0 0 0
							}
						}
					}
				}
			}
		}
	}
	JOINT Spine_virtual
	{
		OFFSET 0.000000 0.000000 0.000000
		CHANNELS 3 Xrotation Yrotation Zrotation
		JOINT Spine
		{
			OFFSET 0.000000 6.876099 0.125700
			CHANNELS 3 Xrotation Yrotation Zrotation
			JOINT Spine1
			{
				OFFSET 0.000000 5.730043 0.104720
				CHANNELS 3 Xrotation Yrotation Zrotation
				JOINT Spine1_split
				{
					OFFSET 0.000000 5.730043 0.104720
					CHANNELS 3 Xrotation Yrotation Zrotation
					JOINT Spine2
					{
						OFFSET 0.000000 5.730043 0.104720
						CHANNELS 3 Xrotation Yrotation Zrotation
						JOINT Neck_virtual
						{
							OFFSET 0.000000 0.000000 0.000000
							CHANNELS 3 Xrotation Yrotation Zrotation
							JOINT Neck
							{
								OFFSET 0.000000 10.314075 0.188496
								CHANNELS 3 Xrotation Yrotation Zrotation
								JOINT Head
								{
									OFFSET 0.000000 7.643700 -2.377400
									CHANNELS 3 Xrotation Yrotation Zrotation
									JOINT HeadTop_End
									{
										OFFSET 0.000000 43.788605 -13.619600
										CHANNELS 3 Xrotation Yrotation Zrotation
										End Site
										{
											OFFSET 0 0 0
										}
									}
								}
							}
						}
						JOINT LeftShoulder_virtual
						{
							OFFSET 0.000000 0.000000 0.000000
							CHANNELS 3 Xrotation Yrotation Zrotation
							JOINT LeftShoulder
							{
								OFFSET 2.196100 4.412489 0.087492
								CHANNELS 3 Xrotation Yrotation Zrotation
								JOINT LeftShoulder_split
								{
									OFFSET 2.196100 4.412489 0.087492
									CHANNELS 3 Xrotation Yrotation Zrotation
									JOINT LeftArm
									{
										OFFSET 8.771219 -2.981674 -0.026999
										CHANNELS 3 Xrotation Yrotation Zrotation
										JOINT LeftForeArm
										{
											OFFSET 8.512804 0.000000 -0.000000
											CHANNELS 3 Xrotation Yrotation Zrotation
											JOINT LeftHand
											{
												OFFSET 18.484802 0.000000 -0.000000
												CHANNELS 3 Xrotation Yrotation Zrotation
												End Site
												{
													OFFSET 0 0 0
												}
											}
										}
									}
								}
							}
						}
						JOINT RightShoulder_virtual
						{
							OFFSET 0.000000 0.000000 0.000000
							CHANNELS 3 Xrotation Yrotation Zrotation
							JOINT RightShoulder
							{
								OFFSET -2.196100 4.412496 0.070690
								CHANNELS 3 Xrotation Yrotation Zrotation
								JOINT RightShoulder_split
								{
									OFFSET -2.196100 4.412496 0.070690
									CHANNELS 3 Xrotation Yrotation Zrotation
									JOINT RightArm
									{
										OFFSET -8.771282 -2.981682 -0.094208
										CHANNELS 3 Xrotation Yrotation Zrotation
										JOINT RightForeArm
										{
											OFFSET -8.494598 0.000000 0.000000
											CHANNELS 3 Xrotation Yrotation Zrotation
											JOINT RightHand
											{
												OFFSET -18.483803 0.000000 0.000001
												CHANNELS 3 Xrotation Yrotation Zrotation
												End Site
												{
													OFFSET 0 0 0
												}
											}
										}
									}
								}
							}
						}
					}
				}
			}
		}
	}
}
MOTION
Frames: 9
Frame Time: 0.03333333
7.432406 31.836229 -5.888767 0.000000 0.000000 0.000000 22.387603 -0.809562 3.021399 -62.006308 8.826899 21.681297 97.072144 -1.592661 -8.501168 5.110012 -18.987740 19.955680 -60.516705 -0.020828 -6.362118 0.000000 0.000000 0.000000 15.217366 -4.121553 5.476845 -27.328627 -21.254732 -30.442433 33.185806 16.380759 3.206774 -8.712800 -25.641362 24.745055 24.809334 0.252817 -41.052845 0.000000 0.000000 0.000000 21.513779 -4.010398 6.272690 26.143975 1.610532 -16.083040 -6.275083 -4.251003 9.408722 0.521543 0.904543 -0.128094 0.000000 0.000000 0.000000 -9.439800 -1.755896 9.897163 -31.315400 6.229714 12.529557 -43.259881 -83.531766 -3.443533 0.000000 0.000000 0.000000 -7.478329 -2.928478 6.907951 5.777642 -10.175577 21.588416 3.832427 -4.753651 -6.795275 -79.734112 10.527402 -11.157107 -105.392851 -70.362129 -92.405602 0.000000 0.000000 0.000000 -2.352065 -0.335946 9.130612 4.729211 -0.555287 -18.092456 -5.846620 -4.957976 13.139896 -26.596026 -17.271544 37.999932 -42.709518 53.371638 35.318683 0.000000 0.000000 0.000000 
6.703059 32.110310 -0.485977 0.000000 0.000000 0.000000 21.418657 -2.860583 2.856580 -65.501453 10.217791 21.891238 76.943645 4.832365 -10.006845 1.777313 -18.610365 19.759321 -53.754163 1.454896 -8.446148 0.000000 0.000000 0.000000 17.126173 -8.873742 6.325323 -19.179789 -23.498743 -29.110068 25.437696 14.107437 4.800629 -2.410501 -21.907313 31.691040 19.123807 3.257793 -41.453552 0.000000 0.000000 0.000000 24.097983 -5.046786 5.861186 26.060466 2.943295 -15.553920 -6.053078 -3.881020 9.135618 0.440837 1.316823 -0.281625 0.000000 0.000000 0.000000 -9.263658 -1.591819 9.814458 -31.074584 6.235301 12.425155 -52.893074 -80.816410 -12.679262 0.000000 0.000000 0.000000 -7.565941 -2.599087 6.891609 5.497679 -8.736587 19.633522 3.133663 -1.644059 -6.021535 -78.645325 12.029868 -7.138778 -114.692250 -69.752597 -102.263354 0.000000 0.000000 0.000000 -2.827204 -0.008810 8.618085 5.287726 3.415735 -18.185898 -8.430788 -1.314945 7.590732 -29.656750 -9.141903 37.313368 -56.170786 63.044845 48.132616 0.000000 0.000000 0.000000 
5.772330 32.830185 5.668456 0.000000 0.000000 0.000000 20.528648 -5.041888 3.791143 -65.082011 12.346970 21.190353 50.306225 12.685721 -7.463606 1.784571 -15.580459 16.548529 -40.808703 0.916801 -8.190204 0.000000 0.000000 0.000000 19.125001 -12.137582 7.761215 -6.246440 -23.409722 -26.301836 12.065197 9.664362 5.651588 8.784552 -16.482221 37.800405 8.238864 7.520136 -33.566155 0.000000 0.000000 0.000000 25.541013 -6.070819 5.828711 26.505920 4.289238 -14.697315 -6.011481 -3.193359 8.082591 0.283195 1.218636 -0.376986 0.000000 0.000000 0.000000 -9.102907 -0.971909 8.924871 -30.061158 6.592952 12.538562 -55.731673 -75.368214 -14.389387 0.000000 0.000000 0.000000 -7.743554 -1.904953 6.108200 4.852777 -7.632343 15.697253 1.616824 1.383585 -4.682766 -74.203653 16.754615 -2.079910 -130.334831 -69.062461 -119.003807 0.000000 0.000000 0.000000 -3.454342 0.659668 7.319054 6.484841 8.670343 -17.904262 -7.251682 0.451377 2.368264 -30.676558 1.238393 36.860526 -73.596750 70.359978 64.777903 0.000000 0.000000 0.000000 
5.168183 33.511982 11.658198 0.000000 0.000000 0.000000 19.346289 -6.123549 5.453883 -61.685030 15.205355 19.616167 28.508267 16.703318 -2.205985 4.705506 -11.249533 10.630975 -23.704125 -0.437772 -5.817164 0.000000 0.000000 0.000000 20.509093 -13.205925 9.393575 7.180220 -21.056884 -23.307947 -2.073534 3.827807 4.661444 20.402786 -12.315692 40.018946 -8.284446 9.221173 -18.527875 0.000000 0.000000 0.000000 24.212623 -5.794683 6.141734 27.716290 5.146959 -13.685789 -6.041187 -2.580863 6.489892 0.237829 0.846083 -0.332102 0.000000 0.000000 0.000000 -8.829002 -0.223296 7.354810 -28.517232 7.392985 12.721156 -54.449179 -67.933355 -11.433525 0.000000 0.000000 0.000000 -7.822034 -1.183030 4.672780 4.031325 -7.210173 10.274720 1.207059 3.031554 -2.832259 -67.075900 23.726131 0.416586 -147.858774 -67.321527 -138.288627 0.000000 0.000000 0.000000 -4.045352 1.267435 5.446037 7.662482 14.099488 -16.321908 -3.148640 -0.897131 -0.374186 -28.965060 10.161429 36.352186 -85.754862 74.885443 76.040243 0.000000 0.000000 0.000000 
4.702734 33.972088 17.740753 0.000000 0.000000 0.000000 17.473212 -6.560746 7.700899 -57.441857 19.657918 18.014170 16.280618 18.057282 1.574347 7.609251 -7.418787 5.603222 -8.551127 -1.161802 -2.080459 0.000000 0.000000 0.000000 21.052849 -12.331835 10.684164 15.706706 -17.532344 -21.850494 -9.381521 -2.092571 2.366549 29.273323 -11.019236 39.592766 -23.024100 5.445991 -2.693049 0.000000 0.000000 0.000000 20.552172 -3.228401 6.714972 29.888795 5.091956 -12.560729 -6.019665 -2.286232 4.493820 0.028645 0.649496 -0.062652 0.000000 0.000000 0.000000 -8.321246 0.308952 5.293853 -27.309251 8.592065 12.751598 -52.034253 -58.667404 -6.682106 0.000000 0.000000 0.000000 -7.745041 -0.762780 2.765918 3.140546 -8.023347 4.320588 3.058576 3.279009 -0.061356 -57.860377 30.828557 -1.891717 -162.669793 -65.100589 -155.567708 0.000000 0.000000 0.000000 -4.549167 1.362753 3.242345 8.263069 18.579675 -12.919523 0.437301 -3.684846 -0.701970 -24.859430 14.484659 35.953289 -82.311518 78.219162 71.686421 0.000000 0.000000 0.000000 
4.427426 34.084240 23.413727 0.000000 0.000000 0.000000 15.522524 -8.054624 10.205556 -51.321464 24.947368 16.226363 12.916901 17.301942 2.772441 9.186601 -5.196841 3.486860 -3.301380 -1.146311 2.535715 0.000000 0.000000 0.000000 20.094160 -10.039573 11.450425 16.170809 -13.725511 -22.727139 -4.548325 -7.245849 1.048018 33.598582 -11.480946 39.059950 -29.429000 -0.114415 7.441349 0.000000 0.000000 0.000000 15.637107 -0.340227 8.119598 32.756590 4.117339 -11.278863 -5.894252 -2.501542 2.274176 -0.153772 0.490254 0.187723 0.000000 0.000000 0.000000 -7.850868 0.315208 2.955098 -26.918346 9.965452 12.516155 -49.415083 -47.139230 -0.796807 0.000000 0.000000 0.000000 -7.342429 -0.955485 0.761941 2.167282 -9.978043 -0.881316 6.311626 2.312851 2.502085 -48.095617 35.126918 -9.055794 -173.184446 -63.778565 -169.031855 0.000000 0.000000 0.000000 -4.968835 0.683344 1.048303 7.839220 20.793391 -7.808520 2.880192 -6.293274 1.385107 -19.378456 12.495955 36.491788 -60.450726 79.678105 49.175982 0.000000 0.000000 0.000000 
4.171724 33.803997 28.477917 0.000000 0.000000 0.000000 13.810434 -9.965424 12.399659 -43.599669 28.639834 13.486440 16.340423 14.255150 2.378347 8.551436 -3.935700 0.946160 -5.327473 -0.657643 5.428418 0.000000 0.000000 0.000000 18.120845 -6.054951 11.742872 8.160885 -9.852101 -25.620678 15.754890 -10.399574 3.498853 31.773043 -11.698268 40.834576 -25.361765 -3.030523 9.314085 0.000000 0.000000 0.000000 10.890043 2.621291 9.562099 35.635221 2.524781 -9.286023 -5.709679 -3.384957 0.179733 -0.232482 0.466841 0.352143 0.000000 0.000000 0.000000 -7.249935 -0.311059 0.614878 -27.112062 11.476796 12.148489 -48.194809 -32.988222 4.851629 0.000000 0.000000 0.000000 -6.668844 -1.844231 -0.949049 1.216959 -12.488298 -4.516119 9.823413 1.355179 3.796610 -40.440553 35.369376 -17.940209 179.654234 -64.222807 -179.443276 0.000000 0.000000 0.000000 -5.375090 -0.777955 -0.908940 6.516721 19.940485 -2.178252 4.771970 -7.012857 3.783542 -13.216211 4.397955 39.279117 -37.697993 78.525578 26.049857 0.000000 0.000000 0.000000 
3.757401 33.219963 33.269558 0.000000 0.000000 0.000000 12.169825 -10.730641 13.398878 -32.760616 30.224584 9.491506 22.123167 11.682953 1.338280 2.506312 -1.611448 1.156948 -9.335733 0.213198 5.225052 0.000000 0.000000 0.000000 15.032522 -1.161495 11.316971 -7.655593 -4.598345 -28.726003 47.504843 -9.403782 8.317563 24.295044 -11.309289 43.253361 -10.939648 -2.205941 2.302629 0.000000 0.000000 0.000000 8.576610 4.911175 10.392410 37.557520 0.778564 -6.030447 -5.421489 -4.815138 -1.540350 -0.291085 0.563399 0.465967 0.000000 0.000000 0.000000 -6.525072 -1.564609 -1.477584 -27.400861 12.791522 11.682677 -49.349295 -16.440187 9.603052 0.000000 0.000000 0.000000 -5.784482 -3.308424 -2.014266 0.489888 -14.939563 -6.169612 12.430669 0.032192 3.191233 -37.627222 32.475617 -24.775797 175.722380 -66.936619 173.433721 0.000000 0.000000 0.000000 -5.553127 -2.820554 -2.448432 5.180263 16.001229 2.353975 4.803788 -5.400606 4.916196 -5.290769 -7.168688 44.573234 -28.518780 77.635332 17.088732 0.000000 0.000000 0.000000 
3.400544 32.457603 38.141342 0.000000 0.000000 0.000000 10.950876 -8.810316 12.739686 -19.217256 29.372419 5.539063 25.717124 9.836928 -0.006362 -8.695718 1.560581 2.954587 -10.974877 1.305108 2.972653 0.000000 0.000000 0.000000 11.974862 2.447215 10.561396 -27.497973 2.352171 -29.513527 74.423708 -6.065506 11.219401 14.560102 -10.222493 44.713256 8.838079 -1.816860 -11.282431 0.000000 0.000000 0.000000 8.776031 4.900172 10.215329 37.681023 -0.774595 -1.346372 -5.168521 -6.681733 -2.568591 -0.083675 0.776073 0.314972 0.000000 0.000000 0.000000 -5.906322 -3.317972 -3.050521 -27.063807 13.581892 11.365390 -52.556523 1.821842 13.725284 0.000000 0.000000 0.000000 -4.729734 -5.290203 -2.231571 0.248141 -16.902413 -5.700478 13.013544 -0.837876 0.604186 -39.504516 28.227442 -27.776815 176.751758 -72.064260 171.593586 0.000000 0.000000 0.000000 -5.191988 -5.178976 -3.309013 4.314686 9.777361 4.822979 3.950866 -1.376179 4.643959 5.843710 -19.172476 52.418478 -29.513749 77.819091 18.994662 0.000000 0.000000 0.000000 
